<?xml version="1.0" standalone="yes"?>

<svg version="1.1" viewBox="0.0 0.0 960.0 720.0" fill="none" stroke="none" stroke-linecap="square" stroke-miterlimit="10" xmlns="http://www.w3.org/2000/svg" xmlns:xlink="http://www.w3.org/1999/xlink"><clipPath id="p.0"><path d="m0 0l960.0 0l0 720.0l-960.0 0l0 -720.0z" clip-rule="nonzero"></path></clipPath><g clip-path="url(#p.0)"><path fill="#000000" fill-opacity="0.0" d="m0 0l960.0 0l0 720.0l-960.0 0z" fill-rule="nonzero"></path><path fill="#000000" d="m737.96747 433.64203l-509.98422 -0.03152466l0 150.01578l509.98422 0.03149414z" fill-rule="nonzero"></path><path stroke="#ffffff" stroke-width="1.0" stroke-linejoin="round" stroke-linecap="butt" d="m737.96747 433.64203l-509.98422 -0.03152466l0 150.01578l509.98422 0.03149414z" fill-rule="nonzero"></path><path fill="#000000" fill-opacity="0.0" d="m34.43307 392.86877l0 0" fill-rule="nonzero"></path><path stroke="#000000" stroke-width="1.0" stroke-linejoin="round" stroke-linecap="butt" d="m34.43307 392.86877l0 0" fill-rule="nonzero"></path><path fill="#000000" d="m0 508.63516l0 0c0 -89.078735 76.97177 -161.29132 171.92126 -161.29132l0 0c45.596344 0 89.325195 16.993134 121.56668 47.24112c32.241486 30.248016 50.354584 71.2731 50.354584 114.0502l0 0c0 89.078766 -76.97177 161.29135 -171.92126 161.29135l0 0c-94.94949 0 -171.92126 -72.212585 -171.92126 -161.29135z" fill-rule="nonzero"></path><path stroke="#ffffff" stroke-width="1.0" stroke-linejoin="round" stroke-linecap="butt" d="m0 508.63516l0 0c0 -89.078735 76.97177 -161.29132 171.92126 -161.29132l0 0c45.596344 0 89.325195 16.993134 121.56668 47.24112c32.241486 30.248016 50.354584 71.2731 50.354584 114.0502l0 0c0 89.078766 -76.97177 161.29135 -171.92126 161.29135l0 0c-94.94949 0 -171.92126 -72.212585 -171.92126 -161.29135z" fill-rule="nonzero"></path><path fill="#ffffff" d="m86.8191 508.6353l0 0c0 -44.53067 38.101624 -80.62991 85.10236 -80.62991l0 0c22.570541 0 44.21666 8.494904 60.176453 23.615967c15.959793 15.121033 24.925919 35.629578 24.925919 57.013947l0 0c0 44.5307 -38.10164 80.629944 -85.10237 80.629944l0 0c-47.00074 0 -85.10236 -36.099243 -85.10236 -80.629944z" fill-rule="nonzero"></path><path stroke="#000000" stroke-width="1.0" stroke-linejoin="round" stroke-linecap="butt" d="m86.8191 508.6353l0 0c0 -44.53067 38.101624 -80.62991 85.10236 -80.62991l0 0c22.570541 0 44.21666 8.494904 60.176453 23.615967c15.959793 15.121033 24.925919 35.629578 24.925919 57.013947l0 0c0 44.5307 -38.10164 80.629944 -85.10237 80.629944l0 0c-47.00074 0 -85.10236 -36.099243 -85.10236 -80.629944z" fill-rule="nonzero"></path><path fill="#000000" d="m616.1575 508.63516l0 0c0 -89.078735 76.9718 -161.29132 171.92126 -161.29132l0 0c45.596375 0 89.325195 16.993134 121.56671 47.24112c32.241455 30.248016 50.354553 71.2731 50.354553 114.0502l0 0c0 89.078766 -76.97174 161.29135 -171.92126 161.29135l0 0c-94.94946 0 -171.92126 -72.212585 -171.92126 -161.29135z" fill-rule="nonzero"></path><path stroke="#ffffff" stroke-width="1.0" stroke-linejoin="round" stroke-linecap="butt" d="m616.1575 508.63516l0 0c0 -89.078735 76.9718 -161.29132 171.92126 -161.29132l0 0c45.596375 0 89.325195 16.993134 121.56671 47.24112c32.241455 30.248016 50.354553 71.2731 50.354553 114.0502l0 0c0 89.078766 -76.97174 161.29135 -171.92126 161.29135l0 0c-94.94946 0 -171.92126 -72.212585 -171.92126 -161.29135z" fill-rule="nonzero"></path><path fill="#ffffff" d="m702.97656 508.6353l0 0c0 -44.53067 38.101624 -80.62991 85.102356 -80.62991l0 0c22.570557 0 44.216675 8.494904 60.176453 23.615967c15.959839 15.121033 24.925903 35.629578 24.925903 57.013947l0 0c0 44.5307 -38.101624 80.629944 -85.102356 80.629944l0 0c-47.000732 0 -85.102356 -36.099243 -85.102356 -80.629944z" fill-rule="nonzero"></path><path stroke="#000000" stroke-width="1.0" stroke-linejoin="round" stroke-linecap="butt" d="m702.97656 508.6353l0 0c0 -44.53067 38.101624 -80.62991 85.102356 -80.62991l0 0c22.570557 0 44.216675 8.494904 60.176453 23.615967c15.959839 15.121033 24.925903 35.629578 24.925903 57.013947l0 0c0 44.5307 -38.101624 80.629944 -85.102356 80.629944l0 0c-47.000732 0 -85.102356 -36.099243 -85.102356 -80.629944z" fill-rule="nonzero"></path></g></svg>

