<?xml version="1.0" encoding="utf-8"?>
<!-- Generator: Adobe Illustrator 16.0.0, SVG Export Plug-In . SVG Version: 6.00 Build 0)  -->
<!DOCTYPE svg PUBLIC "-//W3C//DTD SVG 1.1//EN" "http://www.w3.org/Graphics/SVG/1.1/DTD/svg11.dtd">
<svg version="1.1" id="Layer_1" xmlns="http://www.w3.org/2000/svg" xmlns:xlink="http://www.w3.org/1999/xlink" x="0px" y="0px"
	 width="24px" height="24px" viewBox="0 0 24 24" enable-background="new 0 0 24 24" xml:space="preserve">
<g>
	<path d="M9.878,4.951H9.553c-0.381,0-0.688,0.285-0.688,0.632v2.68h1.704v-2.68C10.566,5.236,10.26,4.951,9.878,4.951L9.878,4.951z
		 M9.878,4.951"/>
	<path d="M14.447,4.951h-0.325c-0.382,0-0.691,0.285-0.691,0.632v2.68h1.704v-2.68C15.135,5.236,14.829,4.951,14.447,4.951
		L14.447,4.951z M14.447,4.951"/>
	<path d="M12,0.268c-6.617,0-12,5.383-12,12c0,3.194,1.241,6.201,3.494,8.465c1.334,1.341,2.984,2.359,4.775,2.944
		c0.12,0.038,0.241,0.056,0.359,0.056c0.487,0,0.939-0.309,1.099-0.797c0.198-0.607-0.133-1.259-0.741-1.456
		c-1.442-0.472-2.776-1.295-3.853-2.377c-1.82-1.828-2.822-4.255-2.822-6.835c0-5.343,4.347-9.688,9.689-9.688
		c5.343,0,9.688,4.345,9.688,9.688c0,2.589-1.007,5.02-2.835,6.849c-0.702,0.632-2.445,1.898-3.49,1.898
		c-0.537,0-0.939-0.169-1.264-0.533c-0.828-0.921-1.009-2.788-1.002-4.086c2.007-0.102,3.603-1.756,3.603-3.785V9.012H7.3v3.599
		c0,1.991,1.533,3.621,3.483,3.778c-0.011,1.549,0.206,4.088,1.591,5.632c0.763,0.853,1.797,1.305,2.989,1.305
		c2.237,0,4.781-2.26,5.063-2.517l0.038-0.034C22.745,18.507,24,15.484,24,12.268C24,5.651,18.616,0.268,12,0.268z M13.969,9.938h1
		v2.417h-1V9.938z M10.031,12.354h-1V9.938h1V12.354z M11.677,12.354h-1V9.938h1V12.354z M12.323,12.354V9.938h1v2.417H12.323z"/>
</g>
</svg>
