<?xml version="1.0" standalone="yes"?>

<svg version="1.1" viewBox="0.0 0.0 960.0 720.0" fill="none" stroke="none" stroke-linecap="square" stroke-miterlimit="10" xmlns="http://www.w3.org/2000/svg" xmlns:xlink="http://www.w3.org/1999/xlink"><clipPath id="p.0"><path d="m0 0l960.0 0l0 720.0l-960.0 0l0 -720.0z" clip-rule="nonzero"></path></clipPath><g clip-path="url(#p.0)"><path fill="#000000" fill-opacity="0.0" d="m0 0l960.0 0l0 720.0l-960.0 0z" fill-rule="nonzero"></path><path fill="#ffffff" d="m44.771652 135.70302l0 0c0 -61.744057 50.05345 -111.79751 111.797516 -111.79751l646.8617 0c29.650513 0 58.08667 11.778631 79.052795 32.744736c20.966064 20.966103 32.74469 49.402237 32.74469 79.05277l0 447.17664c0 61.74408 -50.053467 111.79755 -111.797485 111.79755l-646.8617 0l0 0c-61.744064 0 -111.797516 -50.053467 -111.797516 -111.79755z" fill-rule="nonzero"></path><path stroke="#000000" stroke-width="24.0" stroke-linejoin="round" stroke-linecap="butt" d="m44.771652 135.70302l0 0c0 -61.744057 50.05345 -111.79751 111.797516 -111.79751l646.8617 0c29.650513 0 58.08667 11.778631 79.052795 32.744736c20.966064 20.966103 32.74469 49.402237 32.74469 79.05277l0 447.17664c0 61.74408 -50.053467 111.79755 -111.797485 111.79755l-646.8617 0l0 0c-61.744064 0 -111.797516 -50.053467 -111.797516 -111.79755z" fill-rule="nonzero"></path><path fill="#000000" fill-opacity="0.0" d="m480.0 23.905512l0 670.77167" fill-rule="nonzero"></path><path stroke="#000000" stroke-width="12.0" stroke-linejoin="round" stroke-linecap="butt" d="m480.0 23.905512l0 670.77167" fill-rule="nonzero"></path><path fill="#000000" fill-opacity="0.0" d="m915.22833 359.29135l-870.45667 0" fill-rule="nonzero"></path><path stroke="#000000" stroke-width="12.0" stroke-linejoin="round" stroke-linecap="butt" d="m915.22833 359.29135l-870.45667 0" fill-rule="nonzero"></path></g></svg>

