<?xml version="1.0" encoding="utf-8"?>
<!-- Generator: Adobe Illustrator 12.0.0, SVG Export Plug-In . SVG Version: 6.00 Build 51448)  -->
<!DOCTYPE svg PUBLIC "-//W3C//DTD SVG 1.1//EN" "http://www.w3.org/Graphics/SVG/1.1/DTD/svg11.dtd" [
	<!ENTITY ns_svg "http://www.w3.org/2000/svg">
	<!ENTITY ns_xlink "http://www.w3.org/1999/xlink">
]>
<svg  version="1.1"
	 id="Layer_1" xmlns:rdf="http://www.w3.org/1999/02/22-rdf-syntax-ns#" xmlns:inkscape="http://www.inkscape.org/namespaces/inkscape" xmlns:svg="http://www.w3.org/2000/svg" xmlns:dc="http://purl.org/dc/elements/1.1/" xmlns:cc="http://creativecommons.org/ns#" xmlns:sodipodi="http://sodipodi.sourceforge.net/DTD/sodipodi-0.dtd" sodipodi:version="0.32" inkscape:version="0.46" sodipodi:docname="Multimedia-icon2.svg" inkscape:output_extension="org.inkscape.output.svg.inkscape"
	 xmlns="&ns_svg;" xmlns:xlink="&ns_xlink;" width="157.333" height="206" viewBox="-15.167 -39.5 157.333 206"
	 overflow="visible" enable-background="new -15.167 -39.5 157.333 206" xml:space="preserve">
<filter  id="Gaussian_Blur5">
	<feGaussianBlur  stdDeviation="3" id="feGaussianBlur4" in="SourceGraphic"></feGaussianBlur>
</filter>
<filter  id="Gaussian_Blur4">
	<feGaussianBlur  stdDeviation="1" id="feGaussianBlur7" in="SourceGraphic"></feGaussianBlur>
</filter>
<filter  id="Gaussian_Blur3">
	<feGaussianBlur  stdDeviation="2" id="feGaussianBlur10" in="SourceGraphic"></feGaussianBlur>
</filter>
<filter  id="Gaussian_Blur2">
	<feGaussianBlur  stdDeviation="2" id="feGaussianBlur13" in="SourceGraphic"></feGaussianBlur>
</filter>
<sodipodi:namedview  id="base" guidetolerance="10.0" bordercolor="#666666" inkscape:zoom="3.609375" inkscape:cy="30.753247" showgrid="false" gridtolerance="10.0" inkscape:cx="64" pagecolor="#ffffff" borderopacity="1.0" inkscape:current-layer="Layer_1" inkscape:window-x="0" inkscape:window-y="22" inkscape:window-width="1680" inkscape:window-height="994" inkscape:pageshadow="2" inkscape:pageopacity="0.0" objecttolerance="10.0">
	</sodipodi:namedview>
<defs>
	
	
		<inkscape:perspective  id="perspective309" sodipodi:type="inkscape:persp3d" inkscape:vp_z="128 : 64 : 1" inkscape:vp_y="0 : 1000 : 0" inkscape:vp_x="0 : 64 : 1" inkscape:persp3d-origin="64 : 42.666667 : 1">
		</inkscape:perspective>
</defs>
<g>
	<g id="g15">
		<path id="path2427" d="M94.231,32.318c24.383,0,44.154,28.236,44.154,63.075c0,34.843-19.771,63.083-44.154,63.083
			c-24.386,0-44.153-28.24-44.153-63.083C50.077,60.556,69.846,32.318,94.231,32.318z M72.889,59.596
			c0,8.982,4.612,16.266,10.302,16.266s10.303-7.283,10.303-16.266S88.881,43.33,83.19,43.33
			C77.501,43.328,72.888,50.613,72.889,59.596z M103.418,70.32c0,8.988,4.746,16.267,10.599,16.267
			c5.854,0,10.603-7.277,10.603-16.267c0-8.979-4.747-16.266-10.603-16.266C108.164,54.055,103.418,61.341,103.418,70.32z
			 M103.418,115.619c0,8.987,4.746,16.266,10.599,16.266c5.854,0,10.603-7.277,10.603-16.266c0-8.98-4.747-16.264-10.603-16.264
			C108.164,99.356,103.418,106.639,103.418,115.619z M53.438,95.356c0,8.985,3.955,16.265,8.83,16.265
			c4.881,0,8.834-7.278,8.834-16.265c0-8.981-3.953-16.269-8.834-16.269C57.394,79.088,53.438,86.375,53.438,95.356z
			 M72.889,129.628c0,8.983,4.612,16.265,10.302,16.265s10.303-7.279,10.303-16.265c0-8.982-4.612-16.267-10.303-16.267
			C77.501,113.361,72.889,120.646,72.889,129.628z"/>
		
			<linearGradient id="path8_1_" gradientUnits="userSpaceOnUse" x1="-335.7695" y1="-212.0981" x2="-335.7695" y2="-135.1456" gradientTransform="matrix(-4.371139e-008 -1 -1 4.371139e-008 -77.6898 -240.3112)">
			<stop  offset="0" style="stop-color:#9E9E9E"/>
			<stop  offset="1" style="stop-color:#616161"/>
		</linearGradient>
		<path id="path8" fill="url(#path8_1_)" d="M93.612,32.378c24.384,0,44.156,28.239,44.156,63.075
			c0,34.843-19.772,63.084-44.156,63.084c-24.385,0-44.152-28.241-44.152-63.084C49.46,60.617,69.228,32.378,93.612,32.378z
			 M72.271,59.656c0,8.982,4.613,16.266,10.301,16.266c5.691,0,10.307-7.282,10.307-16.266c0-8.982-4.614-16.265-10.307-16.265
			C76.883,43.39,72.271,50.673,72.271,59.656z M102.802,70.381c0,8.988,4.745,16.266,10.598,16.266
			c5.854,0,10.603-7.275,10.603-16.266c0-8.979-4.747-16.266-10.603-16.266C107.547,54.115,102.802,61.402,102.802,70.381z
			 M102.802,115.681c0,8.988,4.745,16.265,10.598,16.265c5.854,0,10.603-7.275,10.603-16.265c0-8.981-4.747-16.265-10.603-16.265
			C107.547,99.416,102.802,106.699,102.802,115.681z M52.819,95.416c0,8.986,3.955,16.267,8.832,16.267
			c4.879,0,8.832-7.28,8.832-16.267c0-8.979-3.953-16.269-8.832-16.269C56.776,79.148,52.819,86.437,52.819,95.416z M72.271,129.688
			c0,8.984,4.613,16.265,10.301,16.265c5.691,0,10.307-7.279,10.307-16.265c0-8.981-4.614-16.266-10.307-16.266
			C76.884,113.423,72.271,120.705,72.271,129.688z"/>
		
			<linearGradient id="path15_1_" gradientUnits="userSpaceOnUse" x1="-319.5132" y1="3091.7686" x2="-319.5132" y2="2874.5073" gradientTransform="matrix(-9.635158e-009 -0.2204 0.2204 -9.635158e-009 -573.4022 24.9713)">
			<stop  offset="0" style="stop-color:#171717"/>
			<stop  offset="1" style="stop-color:#828282"/>
		</linearGradient>
		<path id="path15" fill="url(#path15_1_)" d="M83.556,55.547c14.069,0,25.477,17.837,25.477,39.848
			c0,22.003-11.406,39.844-25.477,39.844s-25.478-17.841-25.478-39.844C58.078,73.384,69.483,55.547,83.556,55.547z"/>
		<path id="path17" opacity="0.42" fill="#B2B2B2" enable-background="new    " d="M77.81,55.164
			c14.069,0,25.475,17.836,25.475,39.845c0,22.006-11.404,39.844-25.475,39.844c-14.072,0-25.478-17.838-25.478-39.844
			C52.332,73,63.737,55.164,77.81,55.164z"/>
		
			<linearGradient id="path24_1_" gradientUnits="userSpaceOnUse" x1="-317.77" y1="3057.8721" x2="-317.77" y2="2840.6199" gradientTransform="matrix(-9.635158e-009 -0.2204 0.2204 -9.635158e-009 -573.4022 24.9713)">
			<stop  offset="0" style="stop-color:#171717"/>
			<stop  offset="1" style="stop-color:#828282"/>
		</linearGradient>
		<path id="path24" fill="url(#path24_1_)" d="M76.085,55.164c14.068,0,25.475,17.836,25.475,39.845
			c0,22.006-11.406,39.844-25.475,39.844c-14.07,0-25.477-17.838-25.477-39.844C50.608,73,62.015,55.164,76.085,55.164z"/>
		
			<linearGradient id="path31_1_" gradientUnits="userSpaceOnUse" x1="-319.8101" y1="3185.2178" x2="-319.8101" y2="2860.1433" gradientTransform="matrix(-9.635158e-009 -0.2204 0.2204 -9.635158e-009 -573.4022 24.9713)">
			<stop  offset="0" style="stop-color:#171717"/>
			<stop  offset="1" style="stop-color:#828282"/>
		</linearGradient>
		<path id="path31" fill="url(#path31_1_)" d="M87.915,41.117c17.295,1.256,31.08,24.328,31.08,52.617
			c0,29.092-14.58,52.678-32.565,52.678c-0.856,0-1.706-0.071-2.546-0.178c4.491,4.739,9.668,7.457,15.188,7.457
			c17.141,0,31.033-26.072,31.033-58.234c0-32.158-13.894-58.232-31.033-58.232C95.137,37.225,91.38,38.611,87.915,41.117z"/>
		<path id="path33" fill="#CCCCCC" d="M80.776,34.441c22.479,0,40.705,27.401,40.705,61.202c0,33.802-18.228,61.201-40.703,61.201
			c-22.481,0-40.706-27.399-40.706-61.201C40.072,61.843,58.296,34.441,80.776,34.441z M41.797,95.644
			c0,31.177,16.81,56.447,37.543,56.447c20.731,0,37.542-25.271,37.542-56.447c0-31.176-16.811-56.446-37.542-56.446
			C58.606,39.197,41.797,64.468,41.797,95.644z"/>
		
			<linearGradient id="path40_1_" gradientUnits="userSpaceOnUse" x1="-335.9482" y1="-118.7275" x2="-335.9484" y2="-231.5325" gradientTransform="matrix(-4.371139e-008 -1 -1 4.371139e-008 -77.6898 -240.3112)">
			<stop  offset="0" style="stop-color:#FEFEFE"/>
			<stop  offset="1" style="stop-color:#303030"/>
		</linearGradient>
		<path id="path40" fill="url(#path40_1_)" d="M82.216,31.375c24.124,0,43.676,28.772,43.676,64.269
			c0,35.497-19.552,64.271-43.675,64.271c-24.122,0-43.677-28.772-43.677-64.271C38.54,60.148,58.094,31.375,82.216,31.375z
			 M40.072,95.644c0,33.802,18.225,61.201,40.706,61.201c22.477,0,40.703-27.399,40.703-61.201c0-33.801-18.228-61.2-40.705-61.2
			C58.296,34.441,40.072,61.843,40.072,95.644z"/>
		
			<linearGradient id="path49_1_" gradientUnits="userSpaceOnUse" x1="-335.9565" y1="-195.729" x2="-335.9565" y2="-119.2988" gradientTransform="matrix(-4.371139e-008 -1 -1 4.371139e-008 -77.6898 -240.3112)">
			<stop  offset="0" style="stop-color:#FFFFFF"/>
			<stop  offset="0.5" style="stop-color:#BFBFBF"/>
			<stop  offset="1" style="stop-color:#E7E7E7"/>
		</linearGradient>
		<path id="path49" fill="url(#path49_1_)" d="M79.917,34.826c22.215,0,40.229,27.229,40.229,60.816
			c0,33.592-18.014,60.82-40.229,60.82c-22.217,0-40.225-27.229-40.225-60.82C39.692,62.055,57.7,34.826,79.917,34.826z
			 M60.473,61.125c0,8.664,4.203,15.684,9.386,15.684c5.187,0,9.389-7.02,9.389-15.684c0-8.659-4.202-15.682-9.389-15.682
			C64.676,45.445,60.473,52.466,60.473,61.125z M91.254,71.47c0,8.663,4.323,15.683,9.655,15.683s9.656-7.02,9.656-15.683
			c0-8.66-4.324-15.683-9.656-15.683S91.254,62.81,91.254,71.47z M91.254,115.145c0,8.662,4.323,15.682,9.655,15.682
			s9.656-7.02,9.656-15.682c0-8.66-4.324-15.682-9.656-15.682S91.254,106.484,91.254,115.145z M42.755,95.605
			c0,8.662,3.603,15.682,8.043,15.682c4.445,0,8.049-7.02,8.049-15.682c0-8.66-3.604-15.683-8.049-15.683
			C46.356,79.923,42.755,86.945,42.755,95.605z M60.473,128.65c0,8.661,4.203,15.68,9.386,15.68c5.187,0,9.389-7.019,9.389-15.68
			c0-8.66-4.202-15.684-9.389-15.684C64.676,112.967,60.473,119.99,60.473,128.65z"/>
		<path id="path51" fill="#F2F2F2" d="M59.132,128.662c0,8.666,4.354,15.693,9.721,15.693c0.23,0,0.457-0.029,0.687-0.055
			c-5.062-0.546-9.065-7.329-9.065-15.643c0-8.306,3.995-15.082,9.051-15.637c-0.223-0.027-0.444-0.06-0.67-0.06
			C63.483,112.964,59.132,119.992,59.132,128.662z"/>
		<path id="path53" fill="#F2F2F2" d="M59.132,61.14c0,8.666,4.354,15.695,9.721,15.695c0.23,0,0.457-0.032,0.687-0.058
			c-5.062-0.545-9.065-7.328-9.065-15.642c0-8.306,3.995-15.082,9.051-15.636c-0.224-0.028-0.444-0.061-0.672-0.061
			C63.483,45.441,59.132,52.471,59.132,61.14z"/>
		<path id="path55" fill="#F2F2F2" d="M41.605,95.619c0,8.668,3.73,15.695,8.331,15.695c0.199,0,0.393-0.033,0.588-0.058
			c-4.337-0.545-7.77-7.328-7.77-15.642c0-8.306,3.426-15.082,7.756-15.638c-0.189-0.026-0.381-0.059-0.574-0.059
			C45.336,79.921,41.605,86.949,41.605,95.619z"/>
		<path id="path57" fill="#F2F2F2" d="M89.876,71.484c0,8.666,4.477,15.693,9.998,15.693c0.238,0,0.469-0.031,0.707-0.055
			c-5.209-0.547-9.327-7.33-9.327-15.643c0-8.307,4.112-15.082,9.31-15.638c-0.229-0.026-0.455-0.06-0.688-0.06
			C94.353,55.783,89.876,62.813,89.876,71.484z"/>
		<path id="path59" fill="#F2F2F2" d="M89.876,115.158c0,8.666,4.477,15.694,9.998,15.694c0.238,0,0.469-0.03,0.707-0.056
			c-5.209-0.547-9.327-7.329-9.327-15.643c0-8.306,4.112-15.082,9.31-15.638c-0.229-0.026-0.455-0.06-0.688-0.06
			C94.353,99.459,89.876,106.488,89.876,115.158z"/>
		
			<linearGradient id="path66_1_" gradientUnits="userSpaceOnUse" x1="-315.5728" y1="2906.6621" x2="-315.5728" y2="2981.7405" gradientTransform="matrix(-9.635158e-009 -0.2204 0.2204 -9.635158e-009 -573.4022 24.9713)">
			<stop  offset="0" style="stop-color:#EDEDED"/>
			<stop  offset="1" style="stop-color:#D6D6D6"/>
		</linearGradient>
		<path id="path66" fill="url(#path66_1_)" d="M73.079,102.379c-2.348-1.514-3.963-4.451-3.963-7.881
			c0-3.303,1.508-6.145,3.728-7.686c-0.021-0.063-0.038-0.119-0.06-0.181c-0.734-1.418-1.479-2.838-2.361-4.154
			c-3.4,2.479-5.688,6.913-5.688,12.021c0,5.119,2.283,9.587,5.693,12.072C71.282,105.152,72.211,103.785,73.079,102.379z"/>
		
			<linearGradient id="path73_1_" gradientUnits="userSpaceOnUse" x1="-315.562" y1="2906.6689" x2="-315.562" y2="2981.7886" gradientTransform="matrix(-9.635158e-009 -0.2204 0.2204 -9.635158e-009 -573.4022 24.9713)">
			<stop  offset="0" style="stop-color:#EDEDED"/>
			<stop  offset="1" style="stop-color:#D6D6D6"/>
		</linearGradient>
		<path id="path73" fill="url(#path73_1_)" d="M76.091,89.062c2.197,0,3.977,2.445,3.977,5.461c0,3.017-1.778,5.459-3.977,5.459
			c-2.193,0-3.975-2.442-3.975-5.459C72.116,91.507,73.897,89.062,76.091,89.062z"/>
		
			<linearGradient id="path80_1_" gradientUnits="userSpaceOnUse" x1="-315.5708" y1="2906.6787" x2="-315.5708" y2="2981.793" gradientTransform="matrix(-9.635158e-009 -0.2204 0.2204 -9.635158e-009 -573.4022 24.9713)">
			<stop  offset="0" style="stop-color:#EDEDED"/>
			<stop  offset="1" style="stop-color:#D6D6D6"/>
		</linearGradient>
		<path id="path80" fill="url(#path80_1_)" d="M79.103,102.385c2.348-1.514,3.965-4.456,3.965-7.885c0-3.309-1.51-6.147-3.729-7.692
			c0.021-0.06,0.038-0.119,0.058-0.18c0.736-1.419,1.48-2.837,2.364-4.157c3.401,2.482,5.688,6.919,5.688,12.029
			c0,5.119-2.284,9.591-5.695,12.076C80.899,105.158,79.971,103.789,79.103,102.385z"/>
		<path id="path82" fill="#FAFAFA" d="M65.503,94.498c0-4.842,2.066-9.055,5.176-11.6c-0.087-0.137-0.164-0.285-0.256-0.421
			c-3.4,2.479-5.688,6.913-5.688,12.021c0,5.119,2.283,9.587,5.693,12.072c0.085-0.142,0.178-0.279,0.264-0.418
			C67.569,103.604,65.503,99.354,65.503,94.498z"/>
		<path id="path84" fill="#FAFAFA" d="M72.114,94.522c0,3.015,1.779,5.458,3.972,5.458c0.131,0,0.256-0.035,0.382-0.055
			c-2.01-0.268-3.588-2.566-3.588-5.403c0-2.834,1.578-5.138,3.588-5.405c-0.126-0.018-0.251-0.053-0.382-0.053
			C73.894,89.064,72.114,91.509,72.114,94.522z"/>
		<path id="path86" fill="#FAFAFA" d="M79.396,86.628c-0.02,0.061-0.037,0.12-0.058,0.18c2.22,1.545,3.729,4.386,3.729,7.692
			c0,3.429-1.617,6.371-3.965,7.885c0.868,1.404,1.797,2.773,2.65,4.191c0.174-0.129,0.333-0.28,0.501-0.418
			c-0.781-1.27-1.604-2.511-2.388-3.773c2.349-1.514,3.966-4.456,3.966-7.885c0-3.309-1.509-6.147-3.729-7.692
			c0.021-0.06,0.037-0.119,0.059-0.18c0.66-1.271,1.339-2.531,2.105-3.732c-0.17-0.139-0.33-0.294-0.508-0.425
			C80.876,83.791,80.132,85.209,79.396,86.628z"/>
	</g>
	<g id="g84" opacity="0.33" filter="url(#Gaussian_Blur5)" enable-background="new    ">
		<path d="M21.359,63.897c18.042,0,32.581,5.589,32.581,9.884c0,4.301-14.374,11.432-32.415,11.432
			c-18.04,0-32.911-7.131-32.911-11.432C-11.386,69.486,3.32,63.897,21.359,63.897z"/>
	</g>
	<g id="g89" opacity="0.33" filter="url(#Gaussian_Blur5)" enable-background="new    ">
		<path d="M20.526,66.406c13.599,0,24.56,4.272,24.56,7.559c0,3.29-10.835,8.738-24.435,8.738c-13.599,0-24.809-5.448-24.809-8.738
			C-4.157,70.679,6.929,66.406,20.526,66.406z"/>
	</g>
	<g id="g93" opacity="0.33" filter="url(#Gaussian_Blur5)" enable-background="new    ">
		<path d="M20.887,68.572c10.355,0,18.701,3.139,18.701,5.549c0,2.414-8.251,6.416-18.605,6.416S2.091,76.535,2.091,74.121
			C2.091,71.709,10.533,68.572,20.887,68.572z"/>
	</g>
	
		<linearGradient id="path102_1_" gradientUnits="userSpaceOnUse" x1="660.71" y1="-908.1196" x2="664.985" y2="-923.4213" gradientTransform="matrix(1 0 0 -1 -654 -870)">
		<stop  offset="0" style="stop-color:#3B4C68"/>
		<stop  offset="1" style="stop-color:#0F1A29"/>
	</linearGradient>
	<path id="path102" fill="url(#path102_1_)" d="M11.14,23.661l14.63,35.787L7.315,60.347c0,0-13.505-11.479-12.604-20.933
		C-4.388,29.963,11.14,23.661,11.14,23.661z"/>
	<g id="g104">
		<g id="g106">
			<path id="path108" fill="#1F2835" d="M65.565,30.832c8.521,26.287,1.588,47.654-15.48,47.729
				c-17.069,0.081-37.812-21.163-46.33-47.447C-4.762,4.838,2.17-16.532,19.238-16.61C36.303-16.687,57.045,4.554,65.565,30.832z"/>
			<g id="g110" filter="url(#Gaussian_Blur2)">
				
					<linearGradient id="XMLID_9_" gradientUnits="userSpaceOnUse" x1="390.9834" y1="-903.7275" x2="341.0053" y2="-979.4675" gradientTransform="matrix(1.0383 -0.0048 -0.3065 -0.9617 -633.9435 -872.6029)">
					<stop  offset="0" style="stop-color:#979797"/>
					<stop  offset="1" style="stop-color:#4E4E4E"/>
				</linearGradient>
				<path fill="url(#XMLID_9_)" d="M66.676,28.475c8.548,25.23,1.591,45.744-15.53,45.811c-17.123,0.076-37.934-20.313-46.479-45.54
					C-3.876,3.525,3.078-16.985,20.199-17.062C37.321-17.136,58.128,3.253,66.676,28.475z"/>
			</g>
			<g id="g119" filter="url(#Gaussian_Blur2)">
				<path fill="#FFFFFF" d="M59.866,29.287c7.746,23.672,6.062,42.303-9.452,42.37c-15.511,0.071-31.25-19.035-38.992-42.707
					C3.685,5.281,5.363-13.012,20.874-13.081C36.385-13.148,52.123,5.62,59.866,29.287z"/>
			</g>
		</g>
		<path id="path123" fill="none" d="M65.565,30.832c8.521,26.287,1.588,47.654-15.48,47.729
			c-17.069,0.081-37.812-21.163-46.33-47.447C-4.762,4.838,2.17-16.532,19.238-16.61C36.303-16.687,57.045,4.554,65.565,30.832z"/>
	</g>
	<g id="g125">
		<g id="g127">
			<g id="g129">
				<g>
					<defs>
						<path id="XMLID_13_" d="M60.431,28.95c6.924,22.062,1.346,39.948-12.451,39.948c-13.793,0-30.591-17.887-37.512-39.948
							C3.546,6.887,9.118-10.998,22.913-10.998S53.509,6.887,60.431,28.95z"/>
					</defs>
					<clipPath id="XMLID_17_">
						<use xlink:href="#XMLID_13_" />
					</clipPath>
					
						<linearGradient id="ellipse142_1_" gradientUnits="userSpaceOnUse" x1="653.2705" y1="-898.8667" x2="726.1885" y2="-898.8667" gradientTransform="matrix(1 0 0 -1 -654 -870)">
						<stop  offset="0" style="stop-color:#4A4A4A"/>
						<stop  offset="1" style="stop-color:#2A2A2A"/>
					</linearGradient>
					
						<ellipse id="ellipse142" clip-path="url(#XMLID_17_)" fill="url(#ellipse142_1_)" cx="35.729" cy="28.867" rx="36.459" ry="48.022"/>
				</g>
			</g>
		</g>
		<g id="g144">
			<g id="g146">
				<g>
					<defs>
						<path id="XMLID_18_" d="M60.431,28.95c6.924,22.062,1.346,39.948-12.451,39.948c-13.793,0-30.591-17.887-37.512-39.948
							C3.546,6.887,9.118-10.998,22.913-10.998S53.509,6.887,60.431,28.95z"/>
					</defs>
					<clipPath id="XMLID_19_">
						<use xlink:href="#XMLID_18_" />
					</clipPath>
					<g id="g154" clip-path="url(#XMLID_19_)">
						<g id="g156">
							<path id="path158" fill="#1F2835" d="M35.729-21.858c-23.617,0-42.762,22.709-42.762,50.724s19.145,50.723,42.762,50.723
								c23.615,0,42.76-22.708,42.76-50.723S59.345-21.858,35.729-21.858z M35.729,68.337c-15.662,0-28.358-17.673-28.358-39.471
								c0-21.801,1.554-36.713,17.218-36.713C40.25-7.847,60.373,24.199,60.373,46C60.372,67.796,51.389,68.337,35.729,68.337z"/>
						</g>
						<g id="g160">
							<path id="path162" fill="none" d="M35.729-21.858c-23.617,0-42.762,22.709-42.762,50.724s19.145,50.723,42.762,50.723
								c23.615,0,42.76-22.708,42.76-50.723S59.345-21.858,35.729-21.858z M35.729,68.337c-15.662,0-28.358-17.673-28.358-39.471
								c0-21.801,1.554-36.713,17.218-36.713C40.25-7.847,60.373,24.199,60.373,46C60.372,67.796,51.389,68.337,35.729,68.337z"/>
						</g>
					</g>
				</g>
			</g>
		</g>
		<g id="g164">
			<g id="g166">
				<g>
					<defs>
						<path id="XMLID_20_" d="M60.431,28.95c6.924,22.062,1.346,39.948-12.451,39.948c-13.793,0-30.591-17.887-37.512-39.948
							C3.546,6.887,9.118-10.998,22.913-10.998S53.509,6.887,60.431,28.95z"/>
					</defs>
					<clipPath id="XMLID_21_">
						<use xlink:href="#XMLID_20_" />
					</clipPath>
					<g id="g174" clip-path="url(#XMLID_21_)" filter="url(#Gaussian_Blur3)">
						<path fill="#1E242B" d="M23.744,27.938c5.739,6.754,23.856,6.529,48.839,4.84l0,0c0,0-6.096-19.592-12.829-30.271
							C53.017-8.172,37.923-16.625,37.923-16.625S7.765,17.81,23.744,27.938L23.744,27.938z"/>
					</g>
				</g>
			</g>
		</g>
		<g id="g178">
			<g id="g180">
				<g>
					<defs>
						<path id="XMLID_22_" d="M60.431,28.95c6.924,22.062,1.346,39.948-12.451,39.948c-13.793,0-30.591-17.887-37.512-39.948
							C3.546,6.887,9.118-10.998,22.913-10.998S53.509,6.887,60.431,28.95z"/>
					</defs>
					<clipPath id="XMLID_23_">
						<use xlink:href="#XMLID_22_" />
					</clipPath>
					<g id="g188" clip-path="url(#XMLID_23_)" filter="url(#Gaussian_Blur3)">
						
							<linearGradient id="XMLID_24_" gradientUnits="userSpaceOnUse" x1="690.9746" y1="-924.4624" x2="699.2496" y2="-914.4235" gradientTransform="matrix(1 0 0 -1 -654 -870)">
							<stop  offset="0.0051" style="stop-color:#CFCFCF"/>
							<stop  offset="1" style="stop-color:#565656"/>
						</linearGradient>
						<path fill="url(#XMLID_24_)" d="M2.026,38.179c0,0,24.672-1.37,28.02-1.688c5.348-0.506,43.215,32.633,43.215,32.633
							s-14.611,15.965-28.924,12.66C-6.64,70.025,2.026,38.179,2.026,38.179z"/>
					</g>
				</g>
			</g>
		</g>
	</g>
	<g id="g197">
		<g id="g199">
			<g id="g201">
				<g>
					<defs>
						<path id="XMLID_25_" d="M39.638,33.148c1.588,9.447-1.773,17.09-7.506,17.076c-5.731-0.02-11.666-7.689-13.252-17.136
							c-1.587-9.449,1.772-17.095,7.505-17.079C32.116,16.026,38.049,23.697,39.638,33.148z"/>
					</defs>
					<clipPath id="XMLID_26_">
						<use xlink:href="#XMLID_25_" />
					</clipPath>
					
						<linearGradient id="path214_1_" gradientUnits="userSpaceOnUse" x1="690.8711" y1="-891.5796" x2="674.4973" y2="-916.3934" gradientTransform="matrix(1 0 0 -1 -654 -870)">
						<stop  offset="0" style="stop-color:#979797"/>
						<stop  offset="1" style="stop-color:#4E4E4E"/>
					</linearGradient>
					<path id="path214" clip-path="url(#XMLID_26_)" fill="url(#path214_1_)" d="M39.638,33.148
						c1.588,9.447-1.773,17.09-7.506,17.076c-5.731-0.02-11.666-7.689-13.252-17.136c-1.587-9.449,1.772-17.095,7.505-17.079
						C32.116,16.026,38.049,23.697,39.638,33.148z"/>
				</g>
			</g>
		</g>
		<g id="g216">
			<g id="g218">
				<g>
					<defs>
						<path id="XMLID_27_" d="M39.638,33.148c1.588,9.447-1.773,17.09-7.506,17.076c-5.731-0.02-11.666-7.689-13.252-17.136
							c-1.587-9.449,1.772-17.095,7.505-17.079C32.116,16.026,38.049,23.697,39.638,33.148z"/>
					</defs>
					<clipPath id="XMLID_28_">
						<use xlink:href="#XMLID_27_" />
					</clipPath>
					<g id="g226" clip-path="url(#XMLID_28_)">
						<g id="g228" filter="url(#Gaussian_Blur2)">
							<path fill="#202A3C" d="M18.005,25.124c0,0,9.003,16.542,15.079,19.356c6.078,2.813,9.678,7.313,9.678,7.313l-14.518,4.05
								l-10.915-5.737l-7.427-12.83l3.487-16.429L18.005,25.124z"/>
						</g>
						<g id="g232" opacity="0.66" filter="url(#Gaussian_Blur2)" enable-background="new    ">
							<path fill="#FFFFFF" d="M45.782,37.438C45.675,26.235,28.361,9.786,24.307,10.946c5.965,4.727,10.495,14.226,11.479,23.292
								c0.561,5.176,1.012,8.666-1.913,16.094C40.829,54.033,45.86,46.007,45.782,37.438z"/>
						</g>
						<g id="g236" opacity="0.52" filter="url(#Gaussian_Blur2)" enable-background="new    ">
							<path d="M16.739,31.988c0,0,8.025,10.725,10.296,13.334c2.785,3.211,12.154,7.006,12.154,7.006l-9.959,1.772
								c0,0-13.166-5.315-13.166-5.653S16.739,31.988,16.739,31.988z"/>
						</g>
					</g>
				</g>
			</g>
		</g>
	</g>
	<g>
		<path fill="#333333" d="M80.534-12.098c-0.979-6.469-2.092-12.918-3.172-19.373c-0.082-0.617-0.698-1.13-1.313-1.146
			l-18.437-0.296c-0.803-0.028-1.467,0.775-1.359,1.551l2.621,16.969c-3.479-0.489-10.145,2.427-9.212,6.876
			c1.099,5.262,9.444,1.635,11.429-0.921c1.737-2.241,0.827-4.751,0.406-7.288c-0.403-2.439-1.018-5.834-1.432-8.273h15.615
			l1.523,9.838c-3.121-0.358-6.735,1.303-8.407,3.998c-1.492,2.402-0.358,4.938,2.438,5.402
			C75.435-4.066,81.249-7.391,80.534-12.098z M59.742-26.951l-0.484-3.494l15.693,0.25l0.424,3.244H59.742z"/>
		<g id="g256" filter="url(#Gaussian_Blur4)">
			<path fill="#FFFFFF" d="M59.248-12.472c0.085,1.303-1.783,3.145-4.168,4.115c-2.388,0.968-4.388,0.699-4.474-0.605
				c-0.08-1.302,1.782-3.145,4.172-4.113C57.166-14.046,59.169-13.775,59.248-12.472z"/>
		</g>
		<g id="g260" filter="url(#Gaussian_Blur4)">
			<path fill="#FFFFFF" d="M77.649-12.134c0.084,1.303-1.783,3.145-4.17,4.115c-2.389,0.967-4.389,0.698-4.472-0.605
				c-0.08-1.303,1.782-3.146,4.171-4.114C75.565-13.708,77.565-13.438,77.649-12.134z"/>
		</g>
	</g>
	<path id="path266" fill="#333333" d="M102.026,9.813c-1.01-1.804-3.576-3.146-7.703-4.029c-1.147-0.299-2.086-0.589-2.91-0.874
		l-0.406-1.536l-0.865-3.232l-0.258-0.428c0.607,0.321,1.65,0.719,3.18,1.203c3.953,0.896,6.188,1.801,6.695,2.715
		c0.613,1.1,0.639,1.97,0.077,2.621l1.022,0.619h0.092c1.141-1.271,1.184-2.858,0.119-4.768c-1.008-1.804-3.572-3.146-7.701-4.029
		c-3.067-0.8-5-1.549-5.803-2.251c-1.009-0.034-1.723,0.942-1.475,1.886l5.719,20.617c-4.418-0.587-12.324,2.969-10.523,8.374
		c2.13,6.392,12.033,1.968,14.143-1.141c1.854-2.729,0.354-5.775-0.54-8.857c-0.825-2.867-1.798-5.814-2.649-8.686
		c0.509,0.188,1.086,0.387,1.779,0.609c3.953,0.895,6.188,1.799,6.696,2.714c0.614,1.1,0.638,1.969,0.076,2.62l1.021,0.621h0.094
		C103.044,13.309,103.087,11.723,102.026,9.813z"/>
	<g id="g268">
		<g id="g270">
			<g id="g272">
				<g>
					<defs>
						<path id="XMLID_29_" d="M102.026,9.813c-1.01-1.804-3.576-3.146-7.703-4.029c-1.147-0.299-2.086-0.589-2.91-0.874
							l-0.406-1.536l-0.865-3.232l-0.258-0.428c0.607,0.321,1.65,0.719,3.18,1.203c3.953,0.896,6.188,1.801,6.695,2.715
							c0.613,1.1,0.639,1.97,0.077,2.621l1.022,0.619h0.092c1.141-1.271,1.184-2.858,0.119-4.768
							c-1.008-1.804-3.572-3.146-7.701-4.029c-3.067-0.8-5-1.549-5.803-2.251c-1.009-0.034-1.723,0.942-1.475,1.886l5.719,20.617
							c-4.418-0.587-12.324,2.969-10.523,8.374c2.13,6.392,12.033,1.968,14.143-1.141c1.854-2.729,0.354-5.775-0.54-8.857
							c-0.825-2.867-1.798-5.814-2.649-8.686c0.509,0.188,1.086,0.387,1.779,0.609c3.953,0.895,6.188,1.799,6.696,2.714
							c0.614,1.1,0.638,1.969,0.076,2.62l1.021,0.621h0.094C103.044,13.309,103.087,11.723,102.026,9.813z"/>
					</defs>
					<clipPath id="XMLID_30_">
						<use xlink:href="#XMLID_29_" />
					</clipPath>
					<g id="g280" clip-path="url(#XMLID_30_)" filter="url(#Gaussian_Blur4)">
						<path fill="#FFFFFF" d="M93.356,20.836c0.112,1.763-2.34,4.252-5.477,5.559c-3.137,1.303-5.771,0.934-5.879-0.83
							c-0.112-1.763,2.332-4.252,5.473-5.557C90.61,18.704,93.241,19.073,93.356,20.836z"/>
					</g>
				</g>
			</g>
		</g>
	</g>
	<path id="path286" fill="#333333" d="M102.876,37.768c0.04,0.745,0.229,1.93,0.585,3.611c1.2,4.117,1.563,6.688,1.092,7.701
		c-0.567,1.224-1.235,1.77-2.017,1.65l0.007,1.301l0.044,0.086c1.545,0.264,2.807-0.654,3.791-2.771
		c0.93-2.007,0.749-5.145-0.546-9.413c-0.849-3.263-1.193-5.465-1.024-6.614c-0.459-0.937-1.564-0.99-2.188-0.195L89.221,50.76
		c-1.666-4.354-8.25-9.37-11.62-4.467c-3.979,5.792,4.243,12.09,7.694,12.121c3.026,0.021,6.681-5.844,6.681-5.844L102.876,37.768z"
		/>
	<g id="g288">
		<g id="g290">
			<g id="g292">
				<g>
					<defs>
						<path id="XMLID_31_" d="M102.876,37.768c0.04,0.745,0.229,1.93,0.585,3.611c1.2,4.117,1.563,6.688,1.092,7.701
							c-0.567,1.224-1.235,1.77-2.017,1.65l0.007,1.301l0.044,0.086c1.545,0.264,2.807-0.654,3.791-2.771
							c0.93-2.007,0.749-5.145-0.546-9.413c-0.849-3.263-1.193-5.465-1.024-6.614c-0.459-0.937-1.564-0.99-2.188-0.195L89.221,50.76
							c-1.666-4.354-8.25-9.37-11.62-4.467c-3.979,5.792,4.243,12.09,7.694,12.121c3.026,0.021,6.681-5.844,6.681-5.844
							L102.876,37.768z"/>
					</defs>
					<clipPath id="XMLID_32_">
						<use xlink:href="#XMLID_31_" />
					</clipPath>
					<g id="g300" clip-path="url(#XMLID_32_)" filter="url(#Gaussian_Blur4)">
						<path fill="#FFFFFF" d="M87.771,54.272c-1.595,0.755-4.781-0.522-7.113-2.856s-2.301-4.823-0.701-5.586
							c1.596-0.758,4.146,0.498,6.479,2.842C88.769,51.006,89.366,53.512,87.771,54.272z"/>
					</g>
				</g>
			</g>
		</g>
	</g>
</g>
</svg>
