<?xml version="1.0" encoding="iso-8859-1"?>
<!-- Generator: Adobe Illustrator 18.0.0, SVG Export Plug-In . SVG Version: 6.00 Build 0)  -->
<!DOCTYPE svg PUBLIC "-//W3C//DTD SVG 1.1//EN" "http://www.w3.org/Graphics/SVG/1.1/DTD/svg11.dtd">
<svg version="1.1" id="Capa_1" xmlns="http://www.w3.org/2000/svg" xmlns:xlink="http://www.w3.org/1999/xlink" x="0px" y="0px"
	 viewBox="0 0 493.433 493.433" style="enable-background:new 0 0 493.433 493.433;" xml:space="preserve">
<path id="XMLID_627_" d="M411.308,0H82.123C36.764,0,0,36.763,0,82.124v329.184c0,45.36,36.764,82.125,82.123,82.125h329.185
	c45.36,0,82.125-36.765,82.125-82.125V82.124C493.433,36.763,456.668,0,411.308,0z M218.526,318.565
	c0,10.219-8.293,18.511-18.511,18.511H158.65c-10.219,0-18.512-8.292-18.512-18.511V174.883c0-10.219,8.293-18.512,18.512-18.512
	h41.365c10.218,0,18.511,8.293,18.511,18.512V318.565z M353.324,318.565c0,10.219-8.292,18.511-18.509,18.511h-41.368
	c-10.217,0-18.51-8.292-18.51-18.511V174.85c0-10.219,8.293-18.51,18.51-18.51h41.368c10.217,0,18.509,8.291,18.509,18.51V318.565z"
	/>
<g>
</g>
<g>
</g>
<g>
</g>
<g>
</g>
<g>
</g>
<g>
</g>
<g>
</g>
<g>
</g>
<g>
</g>
<g>
</g>
<g>
</g>
<g>
</g>
<g>
</g>
<g>
</g>
<g>
</g>
</svg>
